<svg xmlns="http://www.w3.org/2000/svg" viewBox="0 0 668.34 449.47" role="img" aria-label="Startech mark">
  <title>Startech Mark</title>
  <defs>
    <linearGradient id="blobGrad" x1="0%" y1="50%" x2="100%" y2="50%">
      <stop offset="0%" stop-color="#3B6BFF"/>
      <stop offset="55%" stop-color="#9B6BD8"/>
      <stop offset="100%" stop-color="#F0A6D0"/>
    </linearGradient>
  </defs>
  
  <g transform="translate(-104.162271 540.773075) scale(0.1 -0.1)" fill="url(#blobGrad)">
    <path d="M4449 5400 c-100 -30 -157 -156 -115 -253 17 -39 71 -92 109 -106 76 -29 162 0 221 72 28 35 31 46 31 106 0 55 -4 74 -25 104 -45 66 -144 101 -221 77z"/>
    <path d="M6240 5319 c-272 -58 -538 -237 -690 -463 -82 -123 -136 -168 -249 -206 -88 -29 -168 -26 -324 14 -72 19 -176 40 -230 46 -122 16 -363 8 -467 -15 -305 -68 -559 -205 -761 -412 -217 -224 -255 -259 -314 -290 -148 -77 -287 -101 -462 -77 -140 18 -354 18 -468 -1 -252 -41 -504 -156 -711 -325 -242 -198 -427 -503 -500 -823 -24 -108 -30 -398 -11 -523 99 -620 575 -1105 1199 -1220 130 -25 400 -25 525 -2 218 42 433 134 613 264 170 123 286 166 450 166 174 -1 295 -48 456 -179 120 -97 233 -169 341 -219 356 -162 723 -185 1088 -67 370 119 681 385 859 731 140 274 179 506 152 892 -11 160 5 246 70 378 59 120 147 215 287 308 326 219 507 550 508 928 0 237 -62 444 -188 626 -162 232 -369 379 -645 456 -80 23 -117 27 -263 30 -143 3 -185 0 -265 -17z"/>
    <path d="M2675 4668 c-77 -28 -144 -87 -183 -163 -23 -42 -27 -63 -27 -136 0 -75 3 -92 30 -144 35 -69 113 -138 177 -157 72 -22 175 -16 238 14 310 144 205 601 -138 597 -37 0 -80 -5 -97 -11z"/>
    <path d="M7337 2956 c-213 -76 -272 -351 -106 -500 62 -56 121 -79 204 -79 113 0 205 53 263 152 24 42 27 55 27 146 0 99 0 101 -38 156 -62 93 -144 138 -252 138 -33 0 -77 -6 -98 -13z"/>
  </g>
</svg>
