<svg xmlns="http://www.w3.org/2000/svg" viewBox="0 0 781.5 762.71" role="img" aria-label="Startech Innovation">
  <title>Startech Innovation</title>
  <defs>
    <linearGradient id="blobGrad" x1="0%" y1="50%" x2="100%" y2="50%">
      <stop offset="0%" stop-color="#3B6BFF"/>
      <stop offset="55%" stop-color="#9B6BD8"/>
      <stop offset="100%" stop-color="#F0A6D0"/>
    </linearGradient>
  </defs>
  <rect width="781.5" height="762.71" fill="#000000"/>
  <g transform="translate(-357.5 1137.706464) scale(0.1 -0.1)">
    <g fill="url(#blobGrad)">
      <path d="M7615 11375 c-5 -2 -22 -6 -37 -9 -41 -9 -95 -61 -114 -111 -32 -85 -3 -169 78 -227 27 -18 46 -23 99 -23 56 0 72 4 107 29 114 78 106 249 -14 318 -29 16 -100 30 -119 23z"/>
      <path d="M9395 11291 c-161 -34 -270 -78 -408 -167 -96 -62 -236 -201 -306 -304 -72 -105 -114 -143 -200 -184 -53 -24 -82 -31 -152 -34 -74 -4 -106 1 -230 32 -167 42 -274 56 -414 56 -282 0 -608 -105 -839 -271 -93 -67 -236 -201 -325 -307 -106 -125 -273 -212 -450 -234 -68 -8 -110 -7 -218 7 -305 40 -578 -1 -838 -125 -425 -204 -724 -581 -822 -1040 -26 -122 -26 -449 1 -570 112 -519 473 -928 969 -1099 220 -76 491 -100 718 -62 135 22 276 66 404 125 92 42 147 76 265 162 143 104 260 145 419 145 169 0 308 -52 443 -165 252 -209 485 -315 799 -361 497 -72 1025 143 1348 550 176 221 284 487 313 773 9 90 8 151 -2 282 -14 180 -9 247 22 350 51 167 149 290 325 411 425 291 603 749 477 1229 -60 228 -208 445 -409 598 -96 73 -268 154 -395 188 -141 37 -358 43 -495 15z"/>
      <path d="M5792 10629 c-65 -25 -146 -102 -173 -165 -75 -169 13 -368 189 -426 73 -24 134 -23 210 4 145 51 232 202 202 351 -38 194 -243 307 -428 236z"/>
      <path d="M10490 8931 c-137 -44 -222 -156 -222 -291 0 -117 59 -210 168 -265 147 -74 339 -4 404 147 19 44 22 65 18 137 -3 71 -9 93 -30 126 -62 96 -148 148 -248 152 -36 1 -76 -1 -90 -6z"/>
    </g>
    <g fill="#FFFFFF">
      <path d="M5822 5403 c-39 -92 -118 -278 -175 -413 l-104 -245 39 -3 c22 -2 46 -1 52 1 7 3 40 73 75 156 l64 152 124 -3 125 -3 63 -150 64 -150 52 -3 c39 -2 50 0 46 10 -45 112 -341 805 -347 811 -4 4 -39 -68 -78 -160z m80 -251 c-41 -2 -76 -1 -78 1 -2 2 12 41 31 88 19 46 35 91 35 99 0 8 20 -30 43 -85 l43 -100 -74 -3z"/>
      <path d="M9950 5534 c-147 -39 -257 -153 -296 -304 -46 -180 50 -376 225 -463 61 -30 73 -32 171 -32 89 0 113 4 158 24 28 13 52 26 52 28 0 4 -27 45 -46 72 -2 1 -27 -5 -56 -15 -76 -25 -163 -22 -229 8 -237 110 -247 436 -17 564 47 26 63 29 138 29 63 0 94 -5 118 -18 37 -20 47 -16 75 32 l18 30 -38 19 c-81 41 -180 51 -273 26z"/>
      <path d="M3725 5521 c-48 -22 -79 -54 -100 -103 -31 -76 -10 -183 46 -235 24 -22 94 -56 183 -88 27 -10 66 -33 85 -51 33 -30 36 -37 36 -88 0 -47 -4 -59 -29 -85 -66 -69 -188 -57 -279 27 l-27 26 -33 -33 -32 -32 48 -44 c133 -122 340 -112 422 20 26 42 30 58 30 121 0 64 -3 77 -30 116 -35 49 -107 95 -209 135 -112 42 -146 90 -117 166 31 81 146 98 235 34 l29 -21 29 35 29 34 -32 27 c-68 57 -204 76 -284 39z"/>
      <path d="M4504 5526 c-3 -8 -4 -29 -2 -48 l3 -33 133 -3 132 -3 0 -349 0 -350 50 0 50 0 0 350 0 350 135 0 135 0 0 50 0 50 -315 0 c-262 0 -317 -2 -321 -14z"/>
      <path d="M6720 5141 l0 -401 50 0 50 0 0 176 0 175 47 -3 47 -3 80 -172 80 -173 53 0 c29 0 53 2 53 5 0 2 -36 81 -80 174 -44 94 -80 173 -80 175 0 3 20 14 44 24 71 32 116 109 116 199 0 84 -50 152 -145 194 -41 19 -73 24 -182 27 l-133 4 0 -401z m273 285 c42 -17 87 -70 87 -102 0 -87 -65 -133 -187 -134 l-73 0 0 125 0 125 70 0 c39 0 85 -6 103 -14z"/>
      <path d="M7580 5490 l0 -50 135 0 135 0 0 -350 0 -350 50 0 50 0 0 350 0 349 133 3 132 3 3 48 3 47 -320 0 -321 0 0 -50z"/>
      <path d="M8630 5140 l0 -400 255 0 255 0 0 45 0 45 -205 0 -205 0 0 130 0 130 175 0 175 0 0 50 0 50 -175 0 -175 0 0 125 0 125 195 0 195 0 0 50 0 50 -245 0 -245 0 0 -400z"/>
      <path d="M10760 5140 l0 -400 50 0 50 0 0 175 0 175 215 0 215 0 0 -175 0 -175 50 0 50 0 0 400 0 400 -50 0 -50 0 0 -175 0 -175 -215 0 -215 0 0 175 0 175 -50 0 -50 0 0 -400z"/>
      <path d="M5226 4043 c-3 -3 -6 -69 -6 -145 0 -116 2 -138 15 -138 13 0 15 22 15 139 0 127 -6 162 -24 144z"/>
      <path d="M5540 3905 c0 -179 18 -198 22 -24 l3 122 108 -127 c60 -69 110 -126 113 -126 2 0 4 68 4 150 0 185 -18 205 -22 25 l-3 -125 -105 124 c-58 69 -108 125 -112 125 -5 1 -8 -64 -8 -144z"/>
      <path d="M6080 3905 c0 -122 2 -145 15 -145 13 0 15 20 15 120 l0 121 107 -123 c58 -68 110 -125 115 -126 5 -2 7 61 6 142 -4 181 -21 201 -28 32 l-5 -119 -104 121 c-57 67 -107 122 -112 122 -5 0 -9 -65 -9 -145z"/>
      <path d="M6710 4039 c-14 -6 -37 -22 -53 -37 -91 -87 -24 -246 104 -246 55 0 90 20 127 74 73 108 -55 258 -178 209z m87 -20 c94 -35 117 -150 42 -213 -55 -46 -152 -28 -184 34 -34 66 -2 154 65 177 44 15 43 15 77 2z"/>
      <path d="M7170 4041 c0 -18 116 -283 124 -283 8 1 126 267 126 285 0 4 -4 7 -9 7 -5 0 -30 -51 -56 -112 -26 -62 -51 -119 -55 -127 -4 -8 -27 33 -60 113 -29 69 -57 126 -61 126 -5 0 -9 -4 -9 -9z"/>
      <path d="M7791 4029 c-5 -13 -30 -73 -56 -134 -26 -60 -49 -116 -52 -122 -3 -7 0 -13 7 -13 6 0 23 27 38 60 l26 61 55 -3 55 -3 22 -55 c22 -54 54 -87 39 -39 -14 43 -106 254 -115 263 -6 6 -13 0 -19 -15z m39 -75 c11 -26 20 -48 20 -50 0 -2 -20 -4 -44 -4 l-44 0 21 50 c11 28 22 50 24 50 1 0 11 -21 23 -46z"/>
      <path d="M8170 4035 c0 -11 12 -15 50 -15 l50 0 0 -130 c0 -109 2 -130 15 -130 13 0 15 21 15 130 l0 130 51 0 c36 0 49 4 47 13 -3 8 -38 13 -116 15 -95 2 -112 0 -112 -13z"/>
      <path d="M8657 4043 c-11 -11 -8 -283 3 -283 6 0 10 55 10 145 0 80 -1 145 -3 145 -2 0 -7 -3 -10 -7z"/>
      <path d="M9033 4029 c-77 -38 -105 -142 -55 -208 35 -47 69 -65 122 -65 122 0 191 142 113 235 -29 34 -78 59 -115 59 -13 0 -42 -9 -65 -21z m99 -9 c51 -15 88 -61 88 -111 0 -80 -49 -129 -131 -129 -33 0 -47 6 -75 34 -30 30 -34 41 -34 84 0 57 25 96 74 118 38 16 33 16 78 4z"/>
      <path d="M9520 3906 c0 -122 2 -146 15 -146 12 0 15 22 17 117 l3 116 104 -121 c58 -67 109 -122 113 -122 5 0 7 65 6 145 -4 182 -22 201 -26 27 l-3 -123 -105 123 c-58 68 -109 125 -115 126 -5 2 -9 -55 -9 -142z"/>
    </g>
  </g>
</svg>
