<?xml version="1.0" encoding="UTF-8"?>
<svg data-bbox="0 0 623.84 242.78" viewBox="0 0 623.85 242.77" xmlns:xlink="http://www.w3.org/1999/xlink" xmlns="http://www.w3.org/2000/svg" data-type="ugc">
    <g>
        <defs>
            <clipPath id="ad27cf38-d28a-4d2f-9561-5a146260ec66">
                <path d="M51.33 122.81h61.07v56.33H51.33z"/>
            </clipPath>
            <clipPath id="164e9a27-4c69-4fcf-b468-1b2babaeb8e5">
                <path d="M37.45 112.23h78.54v74.78H37.45z"/>
            </clipPath>
            <clipPath id="e20a1de2-e5a9-4614-92c2-51cc02edb307">
                <path d="M59.79 146.26h17.85V187H59.79z"/>
            </clipPath>
            <clipPath id="55a7b47a-b3b5-4963-bfa5-db27dff4f298">
                <path d="M51.34 122.81h57.54v56.75H51.34z"/>
            </clipPath>
            <linearGradient gradientUnits="userSpaceOnUse" y2="124.51" x2="54.61" y1="12.93" x1="129.87" id="8a55ffd3-477f-4af1-a050-3db1e89d8708">
                <stop stop-color="#36a8e0" offset="0"/>
                <stop stop-color="#72bf44" offset="1"/>
            </linearGradient>
            <linearGradient xlink:href="#8a55ffd3-477f-4af1-a050-3db1e89d8708" y2="160.26" x2="160.2" y1="77.1" x1="216.28" id="83d622c7-c6e5-4c9d-97fa-5eef11261aa5"/>
            <linearGradient gradientUnits="userSpaceOnUse" y2="77.83" x2="189.5" y1="8.92" x1="189.5" id="152a6243-915f-4c95-902b-804896e0e765">
                <stop stop-color="#fcd900" offset="0"/>
                <stop stop-color="#f6b11a" offset="1"/>
            </linearGradient>
            <filter filterUnits="userSpaceOnUse" color-interpolation-filters="sRGB" id="ea59df07-d933-4630-bb83-56e8e1ae224b">
                <feColorMatrix values="-1 0 0 0 1 0 -1 0 0 1 0 0 -1 0 1 0 0 0 1 0"/>
            </filter>
            <mask maskUnits="userSpaceOnUse" height="56.33" width="61.07" y="122.81" x="51.33" id="8c956798-b886-468d-b632-ef9ea26f2014">
                <g filter="url(#ea59df07-d933-4630-bb83-56e8e1ae224b)">
                    <g clip-path="url(#ad27cf38-d28a-4d2f-9561-5a146260ec66)">
                        <path d="M108.88 134.29s16 25.86-20.23 42.09c-29.07 13.02-44.88-23.49-33.72-40.23 11.16-16.74 29.48-10.46 36.05-13.02 6.57-2.56 17.91 11.16 17.91 11.16" fill="#010101"/>
                    </g>
                </g>
            </mask>
        </defs>
        <g style="isolation:isolate">
            <path d="M296.02 224.45h-6.57v-4.47h17.97v4.47h-6.54v17.91h-4.86v-17.91Zm18.09 2.91h.03c.93-1.17 2.55-2.04 4.44-2.04 3.57 0 5.85 2.13 5.85 5.94v11.1h-4.8v-9.75c0-2.04-.87-2.97-2.64-2.97-1.62 0-2.88 1.02-2.88 2.79v9.93h-4.8v-24.09h4.8v9.09Zm28.47 8.03h-11.31c.63 2.37 2.7 3.6 5.22 3.6 1.83 0 3.6-.63 5.19-1.65v3.93c-1.71.99-3.66 1.5-5.79 1.5-5.85 0-9.21-3.63-9.21-8.67s3.72-8.79 8.34-8.79c4.23 0 7.68 2.91 7.68 8.46 0 .6-.03 1.14-.12 1.62Zm-4.44-2.88c-.03-2.16-1.38-3.42-3.15-3.42s-3.36 1.32-3.81 3.42h6.96Zm18.51-4.34c1.02-1.71 3.12-2.85 5.28-2.85 3.87 0 7.29 3.42 7.29 8.73s-3.6 8.73-7.47 8.73c-2.4 0-4.32-1.23-5.4-2.97l-.48 2.55h-4.02v-24.09h4.8v9.9Zm-.06 5.88c0 2.61 1.62 4.41 3.87 4.41s3.9-1.83 3.9-4.38-1.65-4.44-3.93-4.44-3.84 1.83-3.84 4.41Zm30.03 1.34h-11.31c.63 2.37 2.7 3.6 5.22 3.6 1.83 0 3.6-.63 5.19-1.65v3.93c-1.71.99-3.66 1.5-5.79 1.5-5.85 0-9.21-3.63-9.21-8.67s3.72-8.79 8.34-8.79c4.23 0 7.68 2.91 7.68 8.46 0 .6-.03 1.14-.12 1.62Zm-4.44-2.88c-.03-2.16-1.38-3.42-3.15-3.42s-3.36 1.32-3.81 3.42h6.96Zm18.39-5.9v4.08c-1.17-.81-3.18-1.47-5.07-1.47-1.5 0-2.34.51-2.34 1.32 0 .9.96 1.26 2.85 1.77 2.73.66 5.64 1.59 5.64 5.1 0 3.27-2.58 5.37-7.08 5.37-2.4 0-4.47-.6-5.94-1.56v-4.41c1.41 1.14 3.3 2.07 5.73 2.07 1.68 0 2.64-.54 2.64-1.44 0-1.02-1.2-1.35-3.36-1.95-2.64-.75-5.1-1.83-5.1-4.86s2.49-5.31 6.78-5.31c1.95 0 3.96.48 5.25 1.29Zm8.97-.87h4.44v3.96h-4.44v5.97c0 2.1 1.38 2.91 3.24 2.91.45 0 .96-.06 1.5-.15v4.02c-.69.15-1.44.27-2.61.27-4.41 0-6.78-2.61-6.78-6.75v-6.27h-2.34v-3.96h2.37v-3.84h4.62v3.84Zm25.02.87v4.08c-1.17-.81-3.18-1.47-5.07-1.47-1.5 0-2.34.51-2.34 1.32 0 .9.96 1.26 2.85 1.77 2.73.66 5.64 1.59 5.64 5.1 0 3.27-2.58 5.37-7.08 5.37-2.4 0-4.47-.6-5.94-1.56v-4.41c1.41 1.14 3.3 2.07 5.73 2.07 1.68 0 2.64-.54 2.64-1.44 0-1.02-1.2-1.35-3.36-1.95-2.64-.75-5.1-1.83-5.1-4.86s2.49-5.31 6.78-5.31c1.95 0 3.96.48 5.25 1.29Zm8.97-.87h4.44v3.96h-4.44v5.97c0 2.1 1.38 2.91 3.24 2.91.45 0 .96-.06 1.5-.15v4.02c-.69.15-1.44.27-2.61.27-4.41 0-6.78-2.61-6.78-6.75v-6.27h-2.34v-3.96h2.37v-3.84h4.62v3.84Zm5.88 8.36c0-5.31 3.63-8.79 7.38-8.79 2.49 0 4.38 1.26 5.46 2.97l.48-2.55h4.05v16.62h-4.05l-.48-2.55c-1.08 1.74-2.97 2.97-5.46 2.97-3.75 0-7.38-3.48-7.38-8.67Zm12.66-.06c0-2.58-1.65-4.41-3.87-4.41s-3.96 1.89-3.96 4.41 1.68 4.41 3.96 4.41 3.87-1.83 3.87-4.41Zm7.98-8.3h3.81l.48 2.49h.06c1.11-2.01 3.03-2.67 4.5-2.67.51 0 .9.03 1.26.12v4.5c-.45-.12-.93-.15-1.38-.15-2.01 0-3.93 1.08-3.93 4.2v8.13h-4.8v-16.62Zm17.52 0h4.44v3.96h-4.44v5.97c0 2.1 1.38 2.91 3.24 2.91.45 0 .96-.06 1.5-.15v4.02c-.69.15-1.44.27-2.61.27-4.41 0-6.78-2.61-6.78-6.75v-6.27h-2.34v-3.96h2.37v-3.84h4.62v3.84Zm13.38-4.89c0-1.44 1.14-2.58 2.64-2.58s2.61 1.14 2.61 2.58-1.17 2.61-2.61 2.61-2.64-1.14-2.64-2.61Zm.24 4.89h4.8v16.62h-4.8v-16.62Zm23.22 5.51v11.1h-4.8v-9.72c0-2.04-.9-2.97-2.64-2.97s-2.88 1.2-2.88 2.85v9.84h-4.8v-16.62h3.72l.48 2.34h.09c.99-1.56 2.73-2.76 5.01-2.76 3.6 0 5.82 2.22 5.82 5.94Zm9.93-12.98h4.8v24.09h-4.8v-24.09Zm7.89 2.58c0-1.44 1.14-2.58 2.64-2.58s2.61 1.14 2.61 2.58-1.17 2.61-2.61 2.61-2.64-1.14-2.64-2.61Zm.24 4.89h4.8v16.62h-4.8v-16.62Zm9.36 3.96h-2.28v-3.96h2.28v-1.68c0-3.12 2.28-6.06 6.54-6.06 1.14 0 2.1.18 3.18.51v4.02a8.34 8.34 0 0 0-2.34-.36c-1.74 0-2.64.69-2.64 2.28v1.29h4.38v3.96h-4.32v12.66h-4.8V229.7Zm25.44 5.69h-11.31c.63 2.37 2.7 3.6 5.22 3.6 1.83 0 3.6-.63 5.19-1.65v3.93c-1.71.99-3.66 1.5-5.79 1.5-5.85 0-9.21-3.63-9.21-8.67s3.72-8.79 8.34-8.79c4.23 0 7.68 2.91 7.68 8.46 0 .6-.03 1.14-.12 1.62Zm-4.44-2.88c-.03-2.16-1.38-3.42-3.15-3.42s-3.36 1.32-3.81 3.42h6.96Z" fill="#31597b"/>
            <path d="M178.62 44.16c-18.94-18.86-45.06-30.53-73.9-30.53C46.89 13.64 0 60.52 0 118.36c0 12.58 2.23 24.64 6.29 35.82 2.41-24.46 8.49-45.8 25.37-63.49 19.64-20.6 59.96-31.28 92.6-24.02 28.02 6.24 39.33 5.46 48.3-.16 9.37-5.86 7.24-18.08 6.21-22.14" fill="url(#8a55ffd3-477f-4af1-a050-3db1e89d8708)"/>
            <path d="M188.7 56.15c5.45 11.01 2.69 22.11-3.9 35.94-9.36 19.65-29.3 37.42-35.31 53.19-7.12 18.71-1.39 31.2.16 37.44 1.22 4.91 7.33 18.69 10.94 24.2 29.34-18.55 48.85-51.26 48.85-88.55 0-23.65-7.84-45.47-21.06-63.01" fill="url(#83d622c7-c6e5-4c9d-97fa-5eef11261aa5)"/>
            <path d="m220.21 51.92 3.14-.75c1.69-.41 1.69-2.8 0-3.21l-3.14-.76c-1.51-.36-1.73-2.42-.32-3.09l2.9-1.39c1.57-.75 1.07-3.09-.67-3.14l-3.22-.09c-1.55-.04-2.19-2.01-.96-2.96l2.56-1.97c1.37-1.06.4-3.25-1.31-2.93l-3.18.59c-1.53.28-2.56-1.51-1.56-2.7l2.1-2.46c1.13-1.32-.28-3.26-1.89-2.6l-2.99 1.23c-1.44.59-2.82-.95-2.08-2.31l1.54-2.83c.83-1.52-.96-3.13-2.39-2.15l-2.66 1.83c-1.28.88-2.96-.34-2.52-1.83l.91-3.1c.49-1.66-1.59-2.86-2.78-1.6l-2.22 2.34c-1.07 1.13-2.96.29-2.84-1.27l.25-3.22c.13-1.73-2.15-2.47-3.05-.99l-1.69 2.75c-.81 1.33-2.84.89-3.04-.65l-.42-3.19c-.23-1.72-2.61-1.97-3.19-.34l-1.08 3.04c-.52 1.47-2.59 1.46-3.11 0l-1.08-3.03c-.58-1.63-2.96-1.38-3.19.33l-.42 3.2c-.2 1.54-2.23 1.97-3.04.65l-1.69-2.76c-.91-1.48-3.19-.74-3.05.99l.25 3.22c.12 1.55-1.77 2.39-2.84 1.27l-2.22-2.34c-1.19-1.26-3.27-.06-2.78 1.6l.91 3.1c.44 1.49-1.24 2.71-2.52 1.83l-2.66-1.82c-1.43-.98-3.21.62-2.39 2.15l1.62 2.98c.15.27.37.49.64.64 21.27 11.77 38.11 30.52 47.46 53.17.12.29.32.54.58.71l3.88 2.66c1.43.98 3.21-.62 2.39-2.15l-1.54-2.84c-.74-1.37.64-2.91 2.08-2.31l2.99 1.23c1.6.66 3.01-1.28 1.89-2.6l-2.09-2.45c-1.01-1.18.03-2.98 1.56-2.7l3.18.59c1.71.31 2.68-1.88 1.3-2.93l-2.56-1.96c-1.23-.95-.59-2.92.96-2.96l3.22-.09c1.73-.05 2.23-2.39.67-3.14l-2.91-1.39c-1.4-.67-1.19-2.73.33-3.09Z" fill="url(#152a6243-915f-4c95-902b-804896e0e765)"/>
            <path d="M122.9 200.01c0 2.63-16.75 4.76-37.42 4.76s-37.42-2.13-37.42-4.76 16.75-4.76 37.42-4.76 37.42 2.13 37.42 4.76" fill="#d9d9d8"/>
            <path d="M82.59 176.64c1.12 6.77 2.18 12.92 1.85 19.83-.08 1.69 2.8 1.23 2.21-.3-.06-.16-.13-.33-.19-.5-.27-.71-1.11-.82-1.56-.2l-.31.43 2.1.57c.62-6.55-.11-14.3-3.09-20.25-.3-.6-1.11-.15-1.01.43m53.07-42.52c-.17-1.51-1.44-2.22-2.95-2-1.5.22-2.54 1.62-2.33 3.12.04.27.07.54.09.82-.36-.01-.7.12-.95.44-.37.48-.31 1.11.09 1.55.2.23.5.38.8.5-.15 1.2-.46 2.37-.94 3.45-.89 2.07-2.33 3.89-4.21 5.22-.93.67-1.98 1.21-3.07 1.61-.53.2-1.13.37-1.72.52-.59.15-1.18.28-1.78.37-2.38.39-4.84.32-7.08-.41h-.02a1.278 1.278 0 0 0-.82 2.42c1.34.46 2.73.77 4.12.89 1.4.13 2.79.09 4.17-.05.69-.07 1.37-.18 2.05-.3.68-.14 1.34-.28 2.04-.49 1.37-.41 2.69-.99 3.94-1.73 2.49-1.47 4.61-3.69 5.98-6.29.89-1.68 1.51-3.45 1.99-5.26.27-1 .85-2.08.59-4.4" fill="#3d3d3c"/>
            <path d="M54.87 110.77s-22.69-9.8-25.3-.43c-2.61 9.37 13.51 11.78 20.47 12.63 5.58.67 14.84.67 18.28.64 0 0 .08-.96-.14-2.6-1.77-2.38-5.54-6.16-13.31-10.23" fill="#c4e4ea"/>
            <path d="M62.53 109.62c-2.75-3.81-9-12.84-16.78-8.45-6.29 3.55 5.23 12.24 9.61 15.04 4.38 2.81 12.92 6.75 12.92 6.75s.63-4.49-5.76-13.34" fill="#c4e4ea"/>
            <path d="M45.43 107.57c2.48 3.42 7.4 7.01 9.94 8.64 4.38 2.81 12.92 6.75 12.92 6.75s.09-.68-.17-2.03c-1.79-2.39-5.56-6.13-13.25-10.15 0 0-4.34-1.87-9.44-3.2" fill="#9bd3dd"/>
            <g clip-path="url(#164e9a27-4c69-4fcf-b468-1b2babaeb8e5)" mask="url(#8c956798-b886-468d-b632-ef9ea26f2014)">
                <path d="M108.88 134.29s16 25.86-20.23 42.09c-29.07 13.02-44.88-23.49-33.72-40.23 11.16-16.74 29.48-10.46 36.05-13.02 6.57-2.56 17.91 11.16 17.91 11.16" fill="#3a332a"/>
                <path d="M106.43 151.94c0 16.79-15.44 30.41-34.49 30.41s-34.49-13.61-34.49-30.41 15.44-30.41 34.49-30.41 34.49 13.61 34.49 30.41" fill="#ffce1b"/>
                <path d="M103.93 166.57c-11.51 10.73-29.69 9.94-40.61-1.77-10.93-11.71-10.49-33.54 4.39-40.98 14.07-7.04 26.35-9.6 37.27 2.11 10.93 11.71 10.45 29.91-1.05 40.64" fill="#3d3d3c"/>
                <path d="M110.98 154.46c-6.1 11.47-21.6 15.16-34.61 8.24-13.01-6.92-18.61-21.83-12.51-33.3 6.1-11.47 21.6-15.16 34.61-8.24 13.01 6.92 18.61 21.83 12.51 33.3" fill="#ffce1b"/>
                <path d="M111.25 147.97c-5.84 9.65-19.45 12.1-30.4 5.48-10.94-6.62-15.08-19.82-9.24-29.47 5.84-9.65 19.45-12.1 30.39-5.48 10.95 6.62 15.08 19.82 9.24 29.47" fill="#3d3d3c"/>
                <path d="M113.9 134.08c-2.35 9.2-12.28 14.61-22.18 12.09-9.9-2.53-16.03-12.03-13.68-21.23 2.35-9.2 12.28-14.61 22.18-12.09 9.9 2.53 16.03 12.03 13.68 21.23" fill="#ffce1b"/>
                <path d="M115.86 126.23c1.07 6.77-4.67 12.02-13.12 13.36-8.46 1.34-16.72-3.01-17.74-9.78-.88-5.88 5.98-9.14 14.47-10.3 7.68-1.05 15.32-.05 16.39 6.72" fill="#3d3d3c"/>
                <g clip-path="url(#e20a1de2-e5a9-4614-92c2-51cc02edb307)" opacity=".56">
                    <path d="M77.33 148.54c-2.01 2.52-3.84 5.16-5.36 7.94-1.51 2.78-2.71 5.69-3.54 8.72-1.68 6.06-2.18 12.51-2.69 19.04a2.98 2.98 0 1 1-5.94-.46c0-.08.02-.16.03-.23.51-3.27 1.05-6.56 1.73-9.86.68-3.3 1.53-6.62 2.72-9.85 1.18-3.23 2.75-6.34 4.62-9.2 1.87-2.87 4.03-5.49 6.33-7.94.53-.56 1.41-.59 1.97-.06.53.5.59 1.32.14 1.88h-.01Z" fill="#eba721"/>
                </g>
                <g clip-path="url(#55a7b47a-b3b5-4963-bfa5-db27dff4f298)" opacity=".43">
                    <path d="M108.88 134.29s-45.55-12.21-47.68 14.65c-.63 8-.56 25.79 20.22 27.29 4.54.33 8.73-.89 15.53-4.27.38-.01-5.93 4.61-8.2 4.86-29.07 13.02-45-23.93-33.84-40.68 11.16-16.74 29.48-10.46 36.05-13.02 6.57-2.56 17.91 11.16 17.91 11.16" fill="#eba721"/>
                </g>
            </g>
            <path d="M140.31 88.37c-2.91-15.53-17.2-27.26-28.61-28.18-11.68-.94-22.12.93-32.5 6.18-3.12 1.58-5.96 3.57-8.33 6.17l-.43.47c-1.1 2.91-1.16 4.87-1.57 7.36-2.18 13.24 2.4 24.02 11.79 33.09 9.23 8.91 20.58 12.42 33.1 12.45 4.48.01 9.1.34 13.45-1.23 1.13-.41 2.41-.32 3.57-1.06 6.13-5.23 9.56-11.91 10.31-19.9.48-5.14.18-10.28-.77-15.37" fill="#ffce1b"/>
            <path d="M70.44 73.01c-.73 2.55-1.16 4.88-1.57 7.37-2.18 13.24 2.4 24.02 11.79 33.09 9.23 8.91 20.58 12.42 33.1 12.45 4.48.01 13.94-1.39 17.02-2.29-4.1 3.99-12.83 8.06-17.98 9.16-9.06 1.94-17.96 1.4-26.67-1.78-4.47-2.03-8.49-4.73-12.14-8.01-4.48-4.74-7.7-10.24-9.9-16.36-1.39-5.45-2.57-10.93-1.9-16.62.78-6.63 3.3-12.42 8.26-17.03" fill="#eba721"/>
            <path d="M99.03 97.39c-1.85 5.75-8.43 9.45-14.73 8.33-11.93-2.13-10.67-15.17-8.42-20.3 2.3-5.24 7.17-8.12 12.96-7.82 5.16.26 9.62 3.49 10.8 8.78 1.12 5.02.29 8.19-.62 11.01" fill="#fcf9f6"/>
            <path d="M95.01 86.38c3.78 7.84.51 13.29-4.06 15.15-4.37 1.78-10.73.58-12.82-6.26-2.05-6.72 1-11.52 5.2-13.11 3.35-1.27 9.3-.71 11.68 4.23" fill="#373736"/>
            <path d="M87.93 88.23c0 2.15 1.75 3.9 3.9 3.9s3.9-1.75 3.9-3.9-1.75-3.9-3.9-3.9-3.9 1.75-3.9 3.9m26.69-6.22c-.3-4.57 1.63-8.43 5.81-9.7 4.05-1.22 9.35-.08 12.47 3.62 3.04 3.62 7.46 13.72-1.71 18.28-4.84 2.41-11.05.97-13.91-3.25-1.41-2.07-2.37-4.63-2.65-8.96" fill="#fcf9f6"/>
            <path d="M130.18 77.28c3.91 6.22 1.68 11.11-1.98 13.1-3.5 1.9-8.95 1.5-11.35-4.05-2.35-5.45-.25-9.76 3.12-11.5 2.7-1.38 7.74-1.47 10.21 2.44" fill="#373736"/>
            <path d="M104.67 103.05c.73 4.01 6.31 6.07 9.92 5.75 4.06-.36 8.18-4.27 6.87-8.52-.2-.67-1.3-.58-1.25.17.41 7.69-11.87 8.78-14.3 2.26a.638.638 0 0 0-1.23.34" fill="#3a332a"/>
            <path d="M121.66 67.01c2.52-2.82 4.3-6.18 6.99-8.92 2.68-2.73 6.34-4.41 8.89-7.13.62-.66 0-1.7-.87-1.5-3.58.84-7.12 4.49-9.54 7.11-2.54 2.75-5.44 6.25-6.28 9.97-.1.44.47.85.81.47m-30.83-1.35c.05-7.43 1.08-14.23 4.36-20.96-.67-.09-1.35-.18-2.02-.26.09.33.19.66.28.98.22.78 1.48.86 1.65 0 .07-.33.13-.66.2-.98.24-1.15-1.46-2.05-2.02-.85-3.26 6.94-4.96 14.62-3.88 22.27.12.83 1.42.6 1.43-.19" fill="#3d3d3c"/>
            <path d="M99.98 42.31c0 2.2-1.78 3.98-3.98 3.98s-3.98-1.78-3.98-3.98 1.78-3.98 3.98-3.98 3.98 1.78 3.98 3.98m42.76 5.35c0 2.2-1.78 3.98-3.98 3.98s-3.98-1.78-3.98-3.98 1.78-3.98 3.98-3.98 3.98 1.78 3.98 3.98M70.89 176.08c.57 3.67 1.09 7.27 1.01 10.99-.06 2.95.09 7.2-.84 10l1.56-.41-.11-.11-.18 1.38a.55.55 0 0 0 .09-.07c.79-.57.32-1.73-.66-1.56l-.11.02c-.34.06-.69.5-.64.85 0 .05.01.1.02.15.1.82.93 1.21 1.59.66 2.09-1.74 1.58-7.69 1.64-10.14.1-4.24-.3-8.4-2.25-12.22-.34-.66-1.21-.16-1.11.47m6.96-27.84a1.28 1.28 0 0 0-1.81-.03c-2.36 2.28-4.64 4.67-6.74 7.24-2.11 2.57-4.05 5.32-5.7 8.26a51.654 51.654 0 0 0-4.08 9.29c-1.06 3.23-1.8 6.54-2.31 9.88 0 .06-.02.14-.02.2a2.74 2.74 0 0 0 2.51 2.94 2.74 2.74 0 0 0 2.94-2.51l.09-1.06c.04.04.07.09.11.12.36.3.85.42 1.28.16.4-.23.62-.75.49-1.19-.22-.72-.79-1.61-1.51-2.16.25-1.71.57-3.4.98-5.06.74-3.01 1.76-5.94 3.09-8.76 2.64-5.65 6.46-10.79 10.73-15.57.44-.5.43-1.26-.04-1.74" fill="#3d3d3c"/>
            <path d="M72.24 196.76c0 .41-.33.75-.75.75s-.75-.33-.75-.75.33-.75.75-.75.75.33.75.75" fill="#ffffff"/>
            <path d="M115.21 87.82c-2.39-.9-4.96.19-7.17 1.71-1.03.71-2.13 1.73-2.25 3.27-.09 1.21.49 2.37 1.25 3.04 1.28 1.13 2.95 1.09 4.43.58 2.16-.75 4.43-2.09 5.84-4.41.44-.72.52-2.08.2-2.9-.25-.64-.83-.88-1.36-1.01-2.37-.58-4.86-.17-7.05 1.16-.28.17-.56.37-.71.73s-.07.9.22 1.02" fill="#e01f26"/>
            <path d="M107.32 192.74c-4.18-1.72-13.07 2.49-19.1 3.96.22-.93-.04-6.69-.09-7.04-.06-.33-4.82 1.13-4.82 1.13s-.4.22.18.92c.6.71.45 6.47.28 7.38-.06.31.15.6.46.65 2.5.41 12.92.96 16.1 1.01 2.92.05 8.58.24 8.78-1.7-.05-1.07.92-5.2-1.78-6.31" fill="#ca3327"/>
            <path d="M88.28 198.43c-5.74-2.57-13.32-.35-13.32-.35.23-.95.78-6.25.8-7.83 0-.33-5.28.74-5.28.74s-1.08.41-.43 1.08c.54.56-.24 5.91-.37 6.44l-.31.95c-.04.13.01.27.13.34.23.13.59.32.75.41 2.76 1.75 7.77 6.22 11.67 6.59 1.86.18 5.41.08 7.15-1.62 1.03-.99.8-6.03-.77-6.74" fill="#e01f26"/>
            <path d="M124.73 79.93c0 2.15 1.75 3.9 3.9 3.9s3.9-1.75 3.9-3.9-1.75-3.9-3.9-3.9-3.9 1.75-3.9 3.9" fill="#fcf9f6"/>
            <path d="M239.03 9.45h39.8c22.14 0 33.71 11.44 33.71 25.5 0 9.7-5.47 16.29-13.06 19.78v.25c9.7 3.48 15.17 11.19 15.17 21.02 0 14.05-10.82 26.37-34.2 26.37h-41.42V9.45Zm38.56 36.81c6.59 0 9.58-3.36 9.58-7.09s-2.99-7.21-9.58-7.21H265.9v14.3h11.69Zm.37 33.58c6.96 0 10.32-3.36 10.32-7.71s-3.48-7.71-10.2-7.71h-12.19v15.42h12.06Zm44.03-47.63h21.14l2.61 9.95h.25c4.6-8.08 12.06-10.82 18.41-10.82 2.24 0 3.98.25 5.72.75v24.63c-2.24-.5-4.48-.75-6.59-.75-7.83 0-14.92 3.73-14.92 16.29v30.1h-26.62V32.21Zm52.98-18.53c0-7.59 6.09-13.68 13.81-13.68s13.81 6.09 13.81 13.68-6.22 13.68-13.81 13.68-13.81-6.09-13.81-13.68Zm.5 18.53h26.62v70.15h-26.62V32.21Zm85.2 9.08 2.49-9.08h22.64v58.83c0 24.38-16.67 39.43-43.03 39.43-9.95 0-19.53-2.74-26.87-7.46V98.76c6.72 5.35 16.79 9.08 24 9.08 12.31 0 19.28-6.09 19.28-14.18v-3.23c-3.48 5.1-9.83 10.32-19.4 10.32-16.29 0-30.72-14.43-30.72-35.32s15.05-35.07 31.09-35.07c10.07 0 16.67 5.72 20.52 10.95Zm-24.75 24.25c0 6.47 4.73 12.06 11.82 12.06s11.82-5.6 11.82-12.06-4.73-12.06-11.82-12.06-11.82 5.85-11.82 12.06Zm86.56-27.85h.12c3.86-4.1 10.32-7.46 17.91-7.46 14.8 0 24.13 9.08 24.13 24.87v47.26h-26.62v-40.3c0-5.72-2.49-8.21-7.34-8.21-5.1 0-8.21 3.36-8.21 7.83v40.67h-26.62V2.11h26.62v35.58Zm82.71-5.48h17.79v21.64h-17.79v17.91c0 7.09 5.35 9.7 12.31 9.7 1.99 0 4.1-.25 6.34-.62v22.14c-3.98.87-7.34 1.37-12.93 1.37-21.14 0-31.34-12.44-31.34-30.97V53.85h-9.58V32.21h9.58V16.04h25.62v16.17ZM289.8 107h30.97c28.48 0 43.78 13.68 43.78 34.58 0 18.66-13.93 36.19-41.91 36.19h-5.72v22.14h-27.11V107Zm47.39 35.57c0-7.34-5.97-11.07-13.56-11.07h-6.72v22.26h6.97c7.34 0 13.31-3.86 13.31-11.19Zm200.12-7.34h.12c3.86-4.1 10.32-7.46 17.91-7.46 14.8 0 24.13 9.08 24.13 24.87v47.26h-26.62v-40.3c0-5.72-2.49-8.21-7.34-8.21-5.1 0-8.21 3.36-8.21 7.83v40.67h-26.62l-.1-93.81h26.71v29.14Zm-115.8-4.61c3.78 1.41 7.1 2.64 12.31 3.53l2.75.36 3.64.29 4.19.09v65.01h-22.63l-2.49-9.08c-3.98 5.6-10.82 11.07-21.52 11.07-15.42 0-30.72-15.05-30.72-36.82s15.3-37.31 30.72-37.31c10.7 0 17.54 5.47 21.52 11.07l2.23-8.22m-3.35 34.21c0-7.71-4.85-13.43-11.94-13.43s-12.31 6.22-12.31 13.43 4.97 13.43 12.31 13.43 11.94-5.72 11.94-13.43Z" fill="#36a8e0"/>
            <path d="M432.08 133.84c-6.86-1.38-10.58-3.22-10.58-3.22s-.5 1.69-1.73 6.39c9.48 6.67 24.6 4.96 24.6 4.96s.01-1.13.01-7.07c-2.61.04-7.75-.14-12.3-1.05Z" fill="#010101" opacity=".1"/>
            <path d="M485.19 129.76h17.79v21.64h-17.79v17.91c0 7.09 5.35 9.7 12.31 9.7 1.99 0 4.1-.25 6.34-.62v22.14c-3.98.87-7.34 1.37-12.93 1.37-21.14 0-31.34-12.44-31.34-30.97V151.4h-9.58l.02-16.92c2.59-.18 6.02-.85 9.24-1.74 3.1-.86 5.7-1.92 7.36-2.72 2.03-.98 3.39-1.75 5.39-3.04 2.77-1.79 5.34-4.23 7.36-6.6 2.36-2.77 3.87-5.31 4.58-6.78h1.26v16.17Z" fill="#36a8e0"/>
            <path d="M483.94 113.6s-1.72 3.49-4.05 6.18c-2.4 2.77-4.65 5.18-9.48 8.26-8.96 5.09-14.89 5.82-20.39 6.45v7.01s27.79-1.22 35.18-17.08V113.6h-1.26Z" fill="#010101" opacity=".1"/>
        </g>
    </g>
</svg>
